<svg width="30" height="30" viewBox="0 0 30 30" fill="none" xmlns="http://www.w3.org/2000/svg">
<g id="Icon">
<path id="Vector" d="M9.77999 2.23999C5.62283 2.23999 2.23999 5.62283 2.23999 9.77999V20.22C2.23999 24.3771 5.62283 27.76 9.77999 27.76H20.22C24.3771 27.76 27.76 24.3771 27.76 20.22V9.77999C27.76 5.62283 24.3771 2.23999 20.22 2.23999H9.77999ZM9.77999 3.39999H20.22C23.7502 3.39999 26.6 6.24983 26.6 9.77999V20.22C26.6 23.7502 23.7502 26.6 20.22 26.6H9.77999C6.24983 26.6 3.39999 23.7502 3.39999 20.22V9.77999C3.39999 6.24983 6.24983 3.39999 9.77999 3.39999ZM21.96 6.87999C21.6523 6.87999 21.3573 7.0022 21.1397 7.21975C20.9222 7.43729 20.8 7.73234 20.8 8.03999C20.8 8.34764 20.9222 8.64269 21.1397 8.86023C21.3573 9.07778 21.6523 9.19999 21.96 9.19999C22.2676 9.19999 22.5627 9.07778 22.7802 8.86023C22.9978 8.64269 23.12 8.34764 23.12 8.03999C23.12 7.73234 22.9978 7.43729 22.7802 7.21975C22.5627 7.0022 22.2676 6.87999 21.96 6.87999ZM15 8.61999C11.4833 8.61999 8.61999 11.4833 8.61999 15C8.61999 18.5167 11.4833 21.38 15 21.38C18.5167 21.38 21.38 18.5167 21.38 15C21.38 11.4833 18.5167 8.61999 15 8.61999ZM15 9.77999C17.8898 9.77999 20.22 12.1102 20.22 15C20.22 17.8898 17.8898 20.22 15 20.22C12.1102 20.22 9.77999 17.8898 9.77999 15C9.77999 12.1102 12.1102 9.77999 15 9.77999Z" fill="white"/>
</g>
</svg>
