<svg width="64" height="64" viewBox="0 0 64 64" fill="none" xmlns="http://www.w3.org/2000/svg">
<g id="Frame">
<path id="Vector" d="M23.81 3.02002C17.9101 3.02002 13.1 7.8301 13.1 13.73C13.1 17.8884 15.5569 21.407 19.0333 23.18C15.5569 24.953 13.1 28.4717 13.1 32.63C13.1 36.7884 15.5569 40.307 19.0333 42.08C15.5569 43.853 13.1 47.3717 13.1 51.53C13.1 57.4299 17.9101 62.24 23.81 62.24C29.7099 62.24 34.52 57.4299 34.52 51.53V42.08V37.8669C36.2101 41.0742 39.4744 43.34 43.34 43.34C48.8921 43.34 53.42 38.8121 53.42 33.26C53.42 28.6966 50.303 24.9802 46.1307 23.746C50.3375 22.3002 53.42 18.4175 53.42 13.73C53.42 7.8301 48.6099 3.02002 42.71 3.02002H33.26H23.81ZM23.81 5.54002H32V21.92H23.81C19.2721 21.92 15.62 18.2679 15.62 13.73C15.62 9.1921 19.2721 5.54002 23.81 5.54002ZM34.52 5.54002H42.71C47.2479 5.54002 50.9 9.1921 50.9 13.73C50.9 18.2679 47.2479 21.92 42.71 21.92H34.52V5.54002ZM23.81 24.44H32V40.82H23.81C19.2721 40.82 15.62 37.1679 15.62 32.63C15.62 28.0921 19.2721 24.44 23.81 24.44ZM34.52 24.44H38.7331C36.9251 25.3928 35.4727 26.8452 34.52 28.6531V24.44ZM43.34 25.7C47.5302 25.7 50.9 29.0698 50.9 33.26C50.9 37.4502 47.5302 40.82 43.34 40.82C39.1498 40.82 35.78 37.4502 35.78 33.26C35.78 29.0698 39.1498 25.7 43.34 25.7ZM23.81 43.34H32V51.53C32 56.0679 28.3479 59.72 23.81 59.72C19.2721 59.72 15.62 56.0679 15.62 51.53C15.62 46.9921 19.2721 43.34 23.81 43.34Z" fill="white"/>
</g>
</svg>
