<svg width="34" height="30" viewBox="0 0 34 30" fill="none" xmlns="http://www.w3.org/2000/svg">
<g id="Frame" clip-path="url(#clip0_468_28)">
<path id="Vector" d="M4.68759 0C2.55099 0 0.802185 1.60749 0.802185 3.57143V26.4286C0.802185 28.3925 2.55099 30 4.68759 30H29.5541C31.6907 30 33.4395 28.3925 33.4395 26.4286V3.57143C33.4395 1.60749 31.6907 0 29.5541 0H4.68759ZM4.68759 1.42857H29.5541C30.8507 1.42857 31.8854 2.37965 31.8854 3.57143V26.4286C31.8854 27.6203 30.8507 28.5714 29.5541 28.5714H4.68759C3.39104 28.5714 2.35635 27.6203 2.35635 26.4286V3.57143C2.35635 2.37965 3.39104 1.42857 4.68759 1.42857ZM6.24174 8.57143C6.03566 8.57145 5.83802 8.64671 5.69229 8.78066C5.54656 8.91461 5.46469 9.09628 5.46466 9.28572V20.7157C5.46469 20.9051 5.54656 21.0868 5.69229 21.2207C5.83802 21.3547 6.03566 21.4299 6.24174 21.43H12.1548H12.1564C12.4768 21.4295 13.601 21.4044 14.7638 20.9026C15.9266 20.4009 17.1209 19.2724 17.1209 17.4484C17.1209 16.2912 16.7086 15.4199 16.1556 14.8465C15.9241 14.6066 15.7079 14.5797 15.4635 14.4322C15.9311 13.9294 16.3438 13.2489 16.3438 12.1429C16.3438 10.4409 15.3297 9.38472 14.2873 8.95508C13.2448 8.52544 12.1729 8.57143 11.909 8.57143H6.24174ZM21.0063 8.57143C20.9033 8.57009 20.8011 8.58758 20.7055 8.62287C20.6099 8.65817 20.523 8.71057 20.4496 8.77703C20.3763 8.84349 20.3181 8.92268 20.2783 9.01001C20.2386 9.09734 20.2181 9.19105 20.2181 9.28572C20.2181 9.38038 20.2386 9.47409 20.2783 9.56142C20.3181 9.64875 20.3763 9.72794 20.4496 9.7944C20.523 9.86086 20.6099 9.91326 20.7055 9.94856C20.8011 9.98385 20.9033 10.0013 21.0063 10H25.6687C25.7717 10.0013 25.874 9.98385 25.9695 9.94856C26.0651 9.91326 26.152 9.86086 26.2254 9.7944C26.2987 9.72794 26.3569 9.64875 26.3967 9.56142C26.4364 9.47409 26.4569 9.38038 26.4569 9.28572C26.4569 9.19105 26.4364 9.09734 26.3967 9.01001C26.3569 8.92268 26.2987 8.84349 26.2254 8.77703C26.152 8.71057 26.0651 8.65817 25.9695 8.62287C25.874 8.58758 25.7717 8.57009 25.6687 8.57143H21.0063ZM7.01883 10H11.909C12.2605 10 13.0187 9.99736 13.6513 10.2581C14.2839 10.5188 14.7896 10.8919 14.7896 12.1429C14.7896 13.4828 14.2279 13.7399 13.8942 13.8979C13.759 13.9621 13.6473 14.0613 13.5729 14.1833C13.4985 14.3053 13.4647 14.4447 13.4757 14.5842C13.4867 14.7237 13.542 14.8571 13.6347 14.968C13.7274 15.0788 13.8535 15.1623 13.9974 15.2079C14.2912 15.3005 14.6836 15.4731 14.993 15.7938C15.3024 16.1145 15.5667 16.5848 15.5667 17.4484C15.5667 18.7558 14.9119 19.2606 14.1036 19.6094C13.2953 19.9581 12.327 20.0011 12.1548 20.0014H7.01883V10ZM23.3375 10.7143C22.6285 10.7143 21.3306 10.8438 20.1229 11.6057C18.9153 12.3677 17.8979 13.8139 17.8979 16.0714C17.8979 18.1739 18.8373 19.603 20.0182 20.406C21.1991 21.209 22.5376 21.4286 23.4695 21.4286C25.4427 21.4286 26.8379 20.8121 27.6737 19.9358C28.4456 19.1265 28.7012 18.1716 28.7406 17.3549C28.7618 17.2944 28.774 17.2315 28.7771 17.168C28.7773 17.1618 28.7753 17.1546 28.7755 17.1484C28.7756 17.1467 28.7771 17.1446 28.7771 17.1429C28.7768 17.1191 28.7753 17.0953 28.7725 17.0717V17.0689C28.8148 15.778 28.706 14.286 27.956 13.0092C27.1876 11.7013 25.6428 10.7143 23.3375 10.7143ZM9.35007 11.4286V13.5714H11.3853C11.6628 13.5714 12.5874 13.4104 12.5874 12.454C12.5874 11.4968 11.3844 11.4286 11.2002 11.4286H9.35007ZM23.3375 12.1429C25.209 12.1429 26.044 12.7629 26.587 13.6872C27.0268 14.4359 27.1605 15.4417 27.1865 16.4286H24.8917H21.7833C21.5773 16.4286 21.3796 16.5039 21.2339 16.6378C21.0882 16.7718 21.0063 16.9534 21.0063 17.1429C21.0063 17.1429 21.0129 17.3232 21.07 17.4805C21.1271 17.6378 21.2395 17.8316 21.4282 18.005C21.8056 18.352 22.4309 18.5714 23.3375 18.5714C24.2441 18.5714 24.8694 18.352 25.2468 18.005C25.3001 17.956 25.307 17.9081 25.3485 17.8571H27.1C26.9965 18.2534 26.8302 18.6518 26.505 18.9927C25.9782 19.545 25.1083 20 23.4695 20C22.8255 20 21.7645 19.8168 20.9425 19.2578C20.1205 18.6989 19.4521 17.8069 19.4521 16.0714C19.4521 14.1811 20.1752 13.3057 21.0032 12.7832C21.8313 12.2607 22.8646 12.1429 23.3375 12.1429ZM23.4043 13.2868C22.945 13.2868 22.6151 13.3407 22.3525 13.4515C22.0898 13.5615 21.8942 13.728 21.6968 13.8937C21.5655 14.0594 21.4335 14.2261 21.3675 14.4475C21.3014 14.6133 21.2362 14.7793 21.237 15.0014H25.4396C25.3735 14.4478 25.1764 14.0055 24.8477 13.7291C24.5197 13.4526 24.0609 13.2868 23.4043 13.2868ZM9.37587 15.7143V18.5575H11.6525C11.8498 18.5575 13.2355 18.4875 13.2355 17.1889C13.2355 15.8889 12.1467 15.7143 11.6525 15.7143H9.37587Z" fill="white"/>
</g>
<defs>
<clipPath id="clip0_468_28">
<rect width="33" height="30" fill="white" transform="translate(0.5)"/>
</clipPath>
</defs>
</svg>
