<svg width="30" height="22" viewBox="0 0 30 22" fill="none" xmlns="http://www.w3.org/2000/svg">
<g id="icon_mail 1" clip-path="url(#clip0_468_25)">
<path id="Vector" d="M3.888 21.2917C3.17193 21.2917 2.57407 21.0715 2.09444 20.631C1.61481 20.1906 1.375 19.6415 1.375 18.9839V3.59961C1.375 2.94199 1.61481 2.39294 2.09444 1.95246C2.57407 1.51199 3.17193 1.29175 3.888 1.29175H26.862C27.5781 1.29175 28.1759 1.51199 28.6556 1.95246C29.1352 2.39294 29.375 2.94199 29.375 3.59961V18.9839C29.375 19.6415 29.1352 20.1906 28.6556 20.631C28.1759 21.0715 27.5781 21.2917 26.862 21.2917H3.888ZM15.375 11.4567L2.93056 3.98389V18.9839C2.93056 19.2403 3.02026 19.451 3.19967 19.616C3.37933 19.7808 3.60878 19.8632 3.888 19.8632H26.862C27.1412 19.8632 27.3707 19.7808 27.5503 19.616C27.7297 19.451 27.8194 19.2403 27.8194 18.9839V3.98389L15.375 11.4567ZM15.375 9.86318L27.3407 2.72032H3.40928L15.375 9.86318ZM2.93056 3.98389V2.72032V18.9839C2.93056 19.2403 3.02026 19.451 3.19967 19.616C3.37933 19.7808 3.60878 19.8632 3.888 19.8632H2.93056V3.98389Z" fill="white"/>
</g>
<defs>
<clipPath id="clip0_468_25">
<rect width="29" height="21" fill="white" transform="translate(0.5 0.5)"/>
</clipPath>
</defs>
</svg>
