<svg width="40" height="40" viewBox="0 0 40 40" fill="none" xmlns="http://www.w3.org/2000/svg">
<g id="icon_call 1">
<path id="Vector" d="M32.7955 34.6667C29.8453 34.6667 26.821 33.9281 23.7226 32.4508C20.6242 30.9732 17.7456 28.8995 15.0868 26.2296C12.4283 23.5599 10.3602 20.6815 8.88262 17.5942C7.40533 14.5069 6.66669 11.4881 6.66669 8.53794C6.66669 8.00331 6.84169 7.55779 7.19169 7.20137C7.54169 6.84496 7.97919 6.66675 8.50419 6.66675H12.8319C13.3076 6.66675 13.7227 6.81652 14.0771 7.11606C14.4317 7.4156 14.6719 7.79987 14.7976 8.26887L15.6656 12.4417C15.7464 12.9309 15.7318 13.3583 15.6219 13.7241C15.5119 14.0898 15.3178 14.3894 15.0396 14.6227L11.2001 18.2032C11.9179 19.5066 12.7115 20.7176 13.5809 21.8362C14.4504 22.9547 15.3776 24.0142 16.3626 25.0146C17.3787 26.0311 18.4725 26.9762 19.6438 27.8501C20.8149 28.7239 22.1004 29.549 23.5004 30.3254L27.2427 26.5157C27.5277 26.2083 27.848 26.0059 28.2035 25.9084C28.559 25.8107 28.9522 25.791 29.383 25.8494L33.0646 26.6032C33.5403 26.7199 33.9263 26.9595 34.2226 27.322C34.5187 27.6842 34.6667 28.0999 34.6667 28.5689V32.8292C34.6667 33.3542 34.4885 33.7917 34.1321 34.1417C33.7756 34.4917 33.3301 34.6667 32.7955 34.6667ZM10.3789 16.5608L13.7376 13.4716C13.8496 13.3818 13.9225 13.2584 13.9563 13.1015C13.9899 12.9443 13.9842 12.7985 13.9392 12.664L13.1618 8.95531C13.1169 8.77564 13.0384 8.64104 12.9264 8.5515C12.8141 8.46167 12.6683 8.41675 12.4889 8.41675H8.89794C8.76319 8.41675 8.65104 8.46167 8.5615 8.5515C8.47167 8.64104 8.42675 8.75319 8.42675 8.88794C8.46029 10.0838 8.64769 11.3322 8.98894 12.6334C9.3299 13.9348 9.79321 15.2439 10.3789 16.5608ZM25.1664 31.1466C26.3485 31.7323 27.6088 32.1653 28.9473 32.4456C30.2854 32.7261 31.4515 32.8765 32.4455 32.8966C32.5802 32.8966 32.6924 32.8517 32.7819 32.7619C32.8718 32.672 32.9167 32.5599 32.9167 32.4254V28.9119C32.9167 28.7325 32.8718 28.5867 32.7819 28.4744C32.6924 28.3624 32.5578 28.2839 32.3781 28.239L29.1406 27.5757C29.0062 27.5308 28.8885 27.5253 28.7876 27.5591C28.6864 27.5927 28.5797 27.6656 28.4677 27.7779L25.1664 31.1466Z" fill="white"/>
</g>
</svg>
