<svg width="30" height="30" viewBox="0 0 30 30" fill="none" xmlns="http://www.w3.org/2000/svg">
<g id="Frame" clip-path="url(#clip0_468_22)">
<path id="Vector" d="M4.28789 0.85376C2.39948 0.85376 0.853821 2.39942 0.853821 4.28783V26.2659C0.853821 28.1543 2.39948 29.6999 4.28789 29.6999H26.2659C28.1543 29.6999 29.7 28.1543 29.7 26.2659V4.28783C29.7 2.39942 28.1543 0.85376 26.2659 0.85376H4.28789ZM4.28789 2.22739H26.2659C27.4118 2.22739 28.3263 3.14189 28.3263 4.28783V26.2659C28.3263 27.4118 27.4118 28.3263 26.2659 28.3263H4.28789C3.14195 28.3263 2.22745 27.4118 2.22745 26.2659V4.28783C2.22745 3.14189 3.14195 2.22739 4.28789 2.22739ZM7.72195 5.6695C6.96974 5.6695 6.29284 5.89434 5.79163 6.31607C5.29042 6.73781 4.98275 7.36785 4.98275 8.04249C4.98275 9.3249 6.09509 10.3246 7.51001 10.4235L7.51269 10.4249C7.58011 10.4479 7.65073 10.4601 7.72195 10.4611C9.28309 10.4611 10.4612 9.36755 10.4612 8.04249C10.461 8.03041 10.4606 8.01833 10.4598 8.00628C10.3899 6.70117 9.22638 5.6695 7.72195 5.6695ZM7.72195 7.02703C8.67815 7.02703 9.05572 7.45406 9.09692 8.05993C9.08858 8.64801 8.72476 9.10357 7.72195 9.10357C6.77044 9.10357 6.34028 8.61628 6.34028 8.04249C6.34028 7.7556 6.44496 7.5394 6.6649 7.35434C6.88484 7.16928 7.2379 7.02703 7.72195 7.02703ZM5.66151 11.156C5.47936 11.156 5.30468 11.2283 5.17588 11.3571C5.04708 11.4859 4.97472 11.6606 4.9747 11.8428V24.8922C4.97472 25.0744 5.04708 25.2491 5.17588 25.3779C5.30468 25.5067 5.47936 25.579 5.66151 25.579H9.78239C9.96454 25.579 10.1392 25.5067 10.268 25.3779C10.3968 25.2491 10.4692 25.0744 10.4692 24.8922V20.8639V11.8428C10.4692 11.6606 10.3968 11.4859 10.268 11.3571C10.1392 11.2283 9.96454 11.156 9.78239 11.156H5.66151ZM11.8428 11.156C11.6607 11.156 11.486 11.2283 11.3572 11.3571C11.2284 11.4859 11.156 11.6606 11.156 11.8428V24.8922C11.156 25.0744 11.2284 25.2491 11.3572 25.3779C11.486 25.5067 11.6607 25.579 11.8428 25.579H15.9637C16.1459 25.579 16.3205 25.5067 16.4493 25.3779C16.5781 25.2491 16.6505 25.0744 16.6505 24.8922V18.0241C16.6505 17.4543 16.806 16.8874 17.0798 16.5163C17.3535 16.1452 17.6989 15.9225 18.3555 15.9341C19.0325 15.9458 19.3909 16.1777 19.662 16.5418C19.9332 16.9059 20.0846 17.4517 20.0846 18.0241V24.8922C20.0846 25.0744 20.157 25.2491 20.2858 25.3779C20.4146 25.5067 20.5893 25.579 20.7714 25.579H24.8923C25.0744 25.579 25.2491 25.5067 25.3779 25.3779C25.5067 25.2491 25.5791 25.0744 25.5791 24.8922V17.517C25.5791 15.483 24.9766 13.8718 23.9439 12.7818C22.9112 11.6917 21.4748 11.156 19.9558 11.156C18.5121 11.156 17.4135 11.6401 16.6505 12.1339V11.8428C16.6505 11.6606 16.5781 11.4859 16.4493 11.3571C16.3205 11.2283 16.1459 11.156 15.9637 11.156H11.8428ZM6.34833 12.5296H9.09558V20.8639V24.2054H6.34833V12.5296ZM12.5296 12.5296H15.2769V13.6014C15.2769 13.7454 15.3222 13.8858 15.4064 14.0026C15.4906 14.1195 15.6094 14.2069 15.7459 14.2526C15.8825 14.2983 16.03 14.2999 16.1675 14.2572C16.3051 14.2144 16.4257 14.1296 16.5124 14.0146C16.5124 14.0146 17.5909 12.5296 19.9558 12.5296C21.16 12.5296 22.1927 12.9297 22.9472 13.7261C23.7017 14.5226 24.2055 15.7495 24.2055 17.517V24.2054H21.4582V18.0241C21.4582 17.2228 21.2662 16.3944 20.7647 15.7209C20.2632 15.0473 19.4196 14.5784 18.3796 14.5605C17.3343 14.5419 16.4771 15.0206 15.9744 15.7021C15.4718 16.3835 15.2769 17.2203 15.2769 18.0241V24.2054H12.5296V12.5296Z" fill="white"/>
</g>
<defs>
<clipPath id="clip0_468_22">
<rect width="30" height="30" fill="white"/>
</clipPath>
</defs>
</svg>
