<svg width="52" height="36" viewBox="0 0 52 36" fill="none" xmlns="http://www.w3.org/2000/svg">
<g id="Navbar_logo">
<g clip-path="url(#clip0_376_81)">
<g id="Svg">
<path id="Vector" d="M48.8754 25.3625C50.601 25.3625 52 23.978 52 22.2701C52 20.5622 50.601 19.1776 48.8754 19.1776C47.1498 19.1776 45.7509 20.5622 45.7509 22.2701C45.7509 23.978 47.1498 25.3625 48.8754 25.3625Z" fill="white"/>
<path id="Vector_2" d="M4.55233 26.2841V26.8166C4.59371 28.5778 4.77994 29.8271 5.11102 30.5439C5.4421 31.2607 6.14564 31.6293 7.22165 31.6293C8.29765 31.6293 9.00119 31.2402 9.33227 30.4415C9.5392 29.9704 9.64266 29.1922 9.64266 28.0863V0.5H14.464V28.0044C14.464 29.95 14.1329 31.486 13.4708 32.6123C12.3534 34.5374 10.3255 35.5 7.38719 35.5C4.44887 35.5 2.50378 34.7218 1.48985 33.1653C0.496618 31.6088 0 29.4994 0 26.7961V26.2636H4.55233V26.2841Z" fill="white"/>
<path id="Vector_3" d="M21.2097 12.2964V20.1811C21.2097 20.9184 21.2924 21.4918 21.4787 21.8605C21.7891 22.5158 22.4098 22.864 23.3203 22.864C24.4998 22.864 25.3068 22.3929 25.7413 21.4509C25.9689 20.9389 26.0724 20.263 26.0724 19.4234V12.3169H29.5694V25.4035H26.2172V23.5603C26.2172 23.5603 26.1138 23.7241 25.9689 23.9289C25.8448 24.1337 25.6792 24.2976 25.5137 24.4614C24.9757 24.9324 24.4584 25.2601 23.9411 25.4444C23.4444 25.6287 22.8444 25.7107 22.1615 25.7107C20.2164 25.7107 18.8921 25.0143 18.23 23.6217C17.8575 22.8435 17.6713 21.7171 17.6713 20.2221V12.3373H21.2097V12.2964Z" fill="white"/>
<path id="Vector_4" d="M36.46 25.3624H33.0044V7.68835H36.46V25.3829V25.3624Z" fill="white"/>
<path id="Vector_5" d="M43.3713 10.7194H39.8743V7.56555H43.3713V10.7194ZM39.8743 12.2964H43.3713V25.383H39.8743V12.2964Z" fill="white"/>
</g>
</g>
</g>
<defs>
<clipPath id="clip0_376_81">
<path d="M0 1.5C0 0.947715 0.447715 0.5 1 0.5H51C51.5523 0.5 52 0.947715 52 1.5V34.5C52 35.0523 51.5523 35.5 51 35.5H1C0.447716 35.5 0 35.0523 0 34.5V1.5Z" fill="white"/>
</clipPath>
</defs>
</svg>
